<?xml version="1.0" standalone="no"?>
<!DOCTYPE svg PUBLIC "-//W3C//DTD SVG 20010904//EN"
 "http://www.w3.org/TR/2001/REC-SVG-20010904/DTD/svg10.dtd">
<svg version="1.0" xmlns="http://www.w3.org/2000/svg"
 width="301.000000pt" height="301.000000pt" viewBox="0 0 301.000000 301.000000"
 preserveAspectRatio="xMidYMid meet">
<metadata>
Created by potrace 1.14, written by Peter Selinger 2001-2017
</metadata>
<g transform="translate(0.000000,301.000000) scale(0.100000,-0.100000)"
fill="#000000" stroke="none">
<path d="M559 2393 c-36 -32 -91 -80 -122 -108 l-57 -50 0 -157 0 -157 127 -3
127 -3 2 -640 c1 -352 2 -642 3 -645 0 -3 125 -5 276 -5 l275 0 0 912 0 913
-283 0 -283 0 -65 -57z"/>
<path d="M1646 2367 c-49 -45 -112 -103 -140 -129 l-51 -46 0 -176 c0 -111 3
-177 10 -179 5 -2 129 -3 275 -3 l265 1 1 23 c1 12 2 27 3 33 0 6 17 9 39 7
35 -3 37 -5 38 -38 0 -19 -1 -40 -3 -45 -2 -6 -56 -10 -141 -10 -75 1 -142 0
-147 -2 -7 -2 -10 -95 -9 -266 1 -144 2 -267 3 -272 1 -7 56 -10 148 -10 l147
0 1 -38 c2 -49 -11 -57 -74 -48 -4 0 -8 13 -7 28 l1 28 -265 0 c-146 1 -270 0
-275 -2 -7 -2 -10 -63 -10 -162 l0 -159 140 -143 139 -144 316 -1 315 -1 25
27 c40 43 176 192 209 229 l31 35 0 246 0 247 -70 67 c-38 37 -70 70 -70 73 0
2 32 35 70 73 l70 68 0 257 0 256 -132 129 -133 130 -315 0 -315 -1 -89 -82z"/>
</g>
</svg>
